<svg xmlns="http://www.w3.org/2000/svg" viewBox="0 0 94.14 87.32"><defs><style>.cls-1{fill:#b3b4b4;}.cls-2{fill:#1f2b35;}.cls-3{fill:#4468b1;}.cls-4{fill:#2f54a2;}.cls-5{fill:#0d71ba;}</style></defs><title>VL Symbol</title><g id="Layer_2" data-name="Layer 2"><g id="Layer_1-2" data-name="Layer 1"><path class="cls-1" d="M26.55,64.06a14.38,14.38,0,0,0,.25-1.6C26.69,63,26.61,63.52,26.55,64.06ZM51,59.7a7.53,7.53,0,0,0-10.26,2.85,7.44,7.44,0,0,0-1,3.32,7.53,7.53,0,0,1,15,.12A7.47,7.47,0,0,0,51,59.7Zm17.14,8.06c0,.35,0,.68-.1,1a.53.53,0,0,1,0,.13q-.06.5-.15,1c-.08.41-.16.81-.25,1.22s-.19.72-.3,1.08c0,.19-.11.37-.17.56-.16.5-.35,1-.55,1.49l-.23.53c-.27.59-.56,1.18-.89,1.76a20.9,20.9,0,0,1-39.08-9.36,20.89,20.89,0,0,0,41.73.55ZM79.75,17.1a7.53,7.53,0,0,0-13.32,7,7.46,7.46,0,0,1-.6-2.91,7.53,7.53,0,0,1,14.29-3.33A5.68,5.68,0,0,0,79.75,17.1Z"/><path class="cls-2" d="M61.11,37.9c-.29-.25-.57-.49-.87-.72l.85.74c.45.32.91.62,1.36.89C62,38.5,61.54,38.22,61.11,37.9Zm1.36.91a19,19,0,0,0,2.89,1.45A23.63,23.63,0,0,1,62.47,38.81ZM60,39.45l-.07-.06-.08-.06a14.22,14.22,0,0,0-1.6-1.28,18.49,18.49,0,0,0-6.49-3l-.16,0a19.67,19.67,0,0,1-1.47,3.08,20.16,20.16,0,0,1-2.79,3.73,20.67,20.67,0,0,1-6.53,4.7,20.39,20.39,0,0,1-2.08.82l-1,.5-.09,0c-.19.12-.36.21-.53.3s-.36.21-.55.33-.7.43-1,.66c0,0,0,0,0,0s-.17.13-.27.18a19.33,19.33,0,0,0-1.66,1.33h0l-.89.83-.85.89a.35.35,0,0,1-.05.08l-.13.11v0c-.21.24-.42.49-.61.74s-.23.28-.34.41c-.3.4-.58.81-.87,1.23a2.53,2.53,0,0,0-.2.36.19.19,0,0,1-.08.11c-.19.32-.38.66-.57,1s-.39.74-.58,1.11a7.9,7.9,0,0,0-.44,1c-.09.23-.17.44-.24.66a3.69,3.69,0,0,0-.21.64c-.07.17-.13.36-.19.55a.37.37,0,0,0,0,.15s0,.06,0,.1a6.31,6.31,0,0,0-.23.88.59.59,0,0,0,0,.17,1.07,1.07,0,0,0-.07.27.13.13,0,0,1,0,.09c0,.1,0,.17-.06.27a12.35,12.35,0,0,1-.24,1.6s0,0,0,0c0,.25-.06.49-.08.76s0,.51,0,.77a9.37,9.37,0,0,0,0,1.06,2.18,2.18,0,0,0,0,.51c0,.43.06.86.1,1.3a20.83,20.83,0,0,0,1.22,5.17c.13.34.27.7.44,1s.26.57.39.87l.47.87.12.22c.19.32.38.64.58.95s.4.6.63.9a9.72,9.72,0,0,0,1,1.3c.17.21.35.44.54.65a22.12,22.12,0,0,0,1.72,1.64c.25.23.53.43.79.64A20.19,20.19,0,0,0,37,84.45a20.92,20.92,0,0,0,28.49-7.91c.32-.59.62-1.17.88-1.76.08-.17.15-.35.23-.52.21-.5.4-1,.55-1.5,0-.18.11-.37.17-.56.11-.36.2-.72.3-1.08s.17-.81.24-1.23a5.4,5.4,0,0,1,.1-.58c0-.08,0-.15,0-.23s0-.11,0-.17a.27.27,0,0,0,0-.13c0-.34.08-.68.1-1v0h0a5.86,5.86,0,0,0,0-.61c0-.19,0-.38,0-.57v-.24c0-.21,0-.42,0-.64s0-.36,0-.53a.18.18,0,0,1,0-.1v-.11s0-.07,0-.11v-.1a2.09,2.09,0,0,0,0-.35,2.33,2.33,0,0,0,0-.38v-.12a.08.08,0,0,1,0-.07v0c0-.23-.07-.45-.11-.68s0-.26-.06-.41,0-.12,0-.17a20.92,20.92,0,0,1,8-19,18.49,18.49,0,0,1-2.57.17A23.07,23.07,0,0,1,60,39.45Zm-5.13,27a7.53,7.53,0,0,1-15.06,0,5.43,5.43,0,0,1,0-.57A5.75,5.75,0,0,1,40,64.46c0-.11.06-.25.08-.36a4.52,4.52,0,0,1,.21-.62.4.4,0,0,1,.07-.15,4.68,4.68,0,0,1,.38-.78A7.5,7.5,0,0,1,51,59.7,7.33,7.33,0,0,1,52.67,61a4.92,4.92,0,0,1,.57.64,3.14,3.14,0,0,1,.43.62,2.25,2.25,0,0,1,.28.47,2.8,2.8,0,0,1,.14.25q.13.28.24.57c.1.24.17.51.25.75s.05.28.07.42a2.85,2.85,0,0,1,.12.58v0a3.33,3.33,0,0,1,.07.7,1.67,1.67,0,0,1,0,.32Z"/><path class="cls-1" d="M26.51,64.31a4.53,4.53,0,0,0,0,.52c0-.25,0-.5.07-.75A1.85,1.85,0,0,1,26.51,64.31Zm.38-38.54a7.52,7.52,0,0,0-9.66-11.19,7,7,0,0,0-1.61,1.27l.28-.25a7.52,7.52,0,0,1,11.56,9.3A7.68,7.68,0,0,1,26.89,25.77ZM53.88,70a7.52,7.52,0,0,1-14.06-4.08,5.59,5.59,0,0,0,0,.57,7.53,7.53,0,0,0,15.06,0A7.33,7.33,0,0,1,53.88,70Zm14.33-4.29,0-.54a.34.34,0,0,1,0-.1l0,.52c0,.25,0,.5,0,.75C68.22,66.08,68.22,65.87,68.21,65.66Zm-.34-3.18a.88.88,0,0,0,0,.17c0,.14,0,.28.06.41s0,.29.07.42C68,63.15,67.93,62.81,67.87,62.48Z"/><path class="cls-1" d="M26.51,64.31a4.53,4.53,0,0,0,0,.52c0-.25,0-.5.07-.75A1.85,1.85,0,0,1,26.51,64.31Zm.38-38.54a7.52,7.52,0,0,0-9.66-11.19,7,7,0,0,0-1.61,1.27l.28-.25a7.52,7.52,0,0,1,11.56,9.3A7.68,7.68,0,0,1,26.89,25.77ZM53.88,70a7.52,7.52,0,0,1-14.06-4.08,5.59,5.59,0,0,0,0,.57,7.53,7.53,0,0,0,15.06,0A7.33,7.33,0,0,1,53.88,70Zm14-7.47a.88.88,0,0,0,0,.17c0,.14,0,.28.06.41s0,.29.07.42C68,63.15,67.93,62.81,67.87,62.48Zm.34,3.18,0-.54a.34.34,0,0,1,0-.1l0,.52c0,.25,0,.5,0,.75C68.22,66.08,68.22,65.87,68.21,65.66Z"/><path class="cls-1" d="M26.89,25.77a7.52,7.52,0,0,0-9.66-11.19,7,7,0,0,0-1.61,1.27l.28-.25a7.52,7.52,0,0,1,11.56,9.3A7.68,7.68,0,0,1,26.89,25.77Z"/><path class="cls-3" d="M26.68,56.83A22.82,22.82,0,0,1,38,45.66l.07,0,.1,0A18.45,18.45,0,0,0,40,44.85a18.68,18.68,0,0,0,6-4.29l.11-.11v0a19.13,19.13,0,0,1-1.92-2.76,21,21,0,0,1-1.91-4.4,20.71,20.71,0,0,1-.74-8.51.22.22,0,0,0,0-.11l.12-.89v0a23.48,23.48,0,0,0,.15-2.51v-.09c0-.4,0-.8,0-1.17v0c0-.06,0-.13,0-.19v-.09c0-.17,0-.32,0-.49a3.11,3.11,0,0,0,0-.33c0-.22-.06-.43-.1-.66a9,9,0,0,0-.17-1,7.84,7.84,0,0,0-.23-1,1.3,1.3,0,0,0-.07-.33c-.11-.43-.25-.85-.4-1.28a4,4,0,0,0-.22-.64,5.5,5.5,0,0,0-.23-.61s0,0,0,0a23.68,23.68,0,0,0-1.15-2.38,18.24,18.24,0,0,0-1.55-2.34,16.8,16.8,0,0,0-1.83-2.1,2.83,2.83,0,0,0-.3-.3c-.23-.23-.45-.43-.68-.64a.06.06,0,0,0,0,0c-.36-.3-.72-.6-1.09-.89-.19-.15-.38-.28-.57-.41s-.59-.42-.89-.61A10.74,10.74,0,0,0,31.21,3a17.71,17.71,0,0,0-2.49-1.19c-.44-.17-.85-.32-1.29-.47S26.41,1,25.9.9a.1.1,0,0,0-.07,0,.91.91,0,0,0-.23,0,5.54,5.54,0,0,0-.55-.14.86.86,0,0,0-.17,0,1.32,1.32,0,0,0-.39-.06s0,0-.08,0A2.74,2.74,0,0,0,24,.52a.17.17,0,0,0-.1,0,1,1,0,0,0-.32-.05,3.42,3.42,0,0,0-.45,0,4.66,4.66,0,0,0-.72-.08h-.11c-.43,0-.87,0-1.3,0h-.21c-.32,0-.64,0-.94,0L19,.39a.25.25,0,0,0-.12,0,2.09,2.09,0,0,0-.36,0L18,.52h0a.25.25,0,0,0-.12,0l-.28,0a1.27,1.27,0,0,0-.28.06,6.86,6.86,0,0,0-1.08.21L15.77,1q-.7.17-1.38.39l-.28.1-1,.4c-.32.11-.63.26-1,.39a5.12,5.12,0,0,0-.52.27.54.54,0,0,0-.23.11h0c-.25.13-.49.28-.74.43s-.79.44-1.17.68c-.15.12-.32.21-.47.32l-.28.21s-.1.06-.13.1c-.27.18-.53.37-.78.56l-.15.13c-.24.19-.49.4-.73.63A20.06,20.06,0,0,0,5.18,7.41L4.69,8a19.91,19.91,0,0,0-2,2.91,20.93,20.93,0,0,0,7.91,28.48,20.21,20.21,0,0,0,2.1,1c.55.19,1.06.38,1.58.6,0,0,0,0,0,0a20.64,20.64,0,0,1,9.8,8.74m2.76-24a2.52,2.52,0,0,1-.27.3,1.27,1.27,0,0,1-.21.25,7.53,7.53,0,0,1-12.06-8.84,4.56,4.56,0,0,1,.27-.39,3.24,3.24,0,0,1,.28-.4c.13-.17.26-.36.41-.53l0-.05a3.44,3.44,0,0,0,.27-.27,7.2,7.2,0,0,1,1.6-1.28,7.53,7.53,0,0,1,9.67,11.21Zm8.57,23.45s0,0,0,0,0,0,0,0Z"/><path class="cls-4" d="M43.44,24.65l0,.19c0,.09,0,.17,0,.22a18.9,18.9,0,0,0,.68,7.67l.06.17a18.21,18.21,0,0,1,3.23-.23,20.77,20.77,0,0,1,12,3.85c.32.21.61.44.91.66s.58.47.87.72.89.6,1.34.91h0a23.63,23.63,0,0,0,2.89,1.45,21,21,0,0,0,7.9,1.55,20.31,20.31,0,0,0,6.67-1.12c.32-.11.64-.22,1-.36l1-.39c.64-.3,1.28-.64,1.91-1a20.7,20.7,0,0,0,9.8-13.5s0-.05,0-.07a21.44,21.44,0,0,0,.4-2.65c0-.08,0-.15,0-.23,0-.54.1-1.08.1-1.62s0-1.11-.07-1.66a.15.15,0,0,0,0-.11c0-.53-.1-1.06-.19-1.59,0,0,0,0,0,0,0-.31-.11-.61-.17-.91s-.13-.62-.21-.93-.19-.71-.32-1.07a18.19,18.19,0,0,0-.74-2,4.56,4.56,0,0,0-.24-.55c-.27-.57-.57-1.15-.89-1.7a20.91,20.91,0,0,0-28.6-7.48,22.52,22.52,0,0,0-2.13,1.42c-.28.25-.58.49-.89.72A20.71,20.71,0,0,1,47,9.26a20.26,20.26,0,0,1-7.63-1.49A22.65,22.65,0,0,1,43.63,23M73.4,28.67h-.06a6.31,6.31,0,0,1-1.06-.08,3,3,0,0,1-.58-.11l-.53-.13c-.23-.08-.45-.15-.68-.25a1.57,1.57,0,0,1-.32-.15,5.57,5.57,0,0,1-1.36-.83.86.86,0,0,1-.26-.21,3,3,0,0,1-.53-.49.29.29,0,0,1-.14-.13,7,7,0,0,1-.56-.66s0,0,0-.06a5.55,5.55,0,0,1-.53-.85,3.45,3.45,0,0,1-.24-.47.53.53,0,0,1-.08-.17,7.53,7.53,0,0,1,13.33-7c.13.24.26.49.36.73a.44.44,0,0,1,.07.19,7.61,7.61,0,0,1,.7,3.1A7.52,7.52,0,0,1,73.4,28.67ZM41.65,23.76l-.12.89c.06-.3.1-.59.14-.89v0a21.1,21.1,0,0,0,.13-2.51c0,.84-.06,1.67-.15,2.51Zm.13-3.59c0,.35,0,.71,0,1.06v0C41.8,20.85,41.8,20.51,41.78,20.17Zm0-.2c0,.07,0,.13,0,.2,0-.14,0-.29,0-.43C41.75,19.81,41.76,19.89,41.76,20Zm-.06-.81c0,.19,0,.38,0,.58,0,0,0-.06,0-.09S41.72,19.33,41.7,19.16Zm-.13-1a9,9,0,0,0-.17-1,13.73,13.73,0,0,1,.3,2,3.11,3.11,0,0,1,0-.33C41.65,18.61,41.61,18.4,41.57,18.17Zm-.06,6.59a20.71,20.71,0,0,0,.74,8.51A21.41,21.41,0,0,1,41.51,24.76ZM40.23,13.25a20,20,0,0,0-1.15-2.38A23.68,23.68,0,0,1,40.23,13.25ZM33.59,4.58c.09.08.19.13.28.21-.28-.23-.57-.43-.85-.62C33.21,4.3,33.4,4.43,33.59,4.58Zm-9.1-4A5.21,5.21,0,0,1,25.6.85a.91.91,0,0,1,.23,0,7.63,7.63,0,0,0-.95-.2A1.32,1.32,0,0,0,24.49.62ZM18,.52,18.5.45,18,.52Zm-.15,0a.25.25,0,0,1,.12,0,1.34,1.34,0,0,0-.4.06ZM16.43.81A7,7,0,0,1,17.3.64a6.86,6.86,0,0,0-1.08.21Zm-2,.54a16.49,16.49,0,0,1,1.83-.5L15.77,1Q15.07,1.13,14.39,1.35Zm-3,1.27c.24-.15.49-.26.73-.38l-.77.38A0,0,0,0,1,11.39,2.62ZM10.46,3q-.48.29-1,.63c.32-.23.66-.42,1-.63A21.28,21.28,0,0,1,13,1.77,18,18,0,0,0,10.46,3ZM8.56,4.36s.09-.06.13-.1L9,4.05c.17-.15.36-.26.53-.39A14.85,14.85,0,0,0,7.78,4.92C8,4.73,8.29,4.54,8.56,4.36Z"/><path class="cls-5" d="M29.49,55.53c-.27.43-.49.88-.72,1.33A22.12,22.12,0,0,0,27.45,60a3.69,3.69,0,0,1,.21-.64c.07-.22.15-.43.24-.66a7.9,7.9,0,0,1,.44-1c.19-.37.38-.75.58-1.11A9.9,9.9,0,0,1,29.49,55.53Z"/><path class="cls-5" d="M30.64,53.83c.11-.13.21-.28.34-.41a20,20,0,0,0-1.41,2,2.53,2.53,0,0,1,.2-.36C30.06,54.64,30.34,54.23,30.64,53.83Z"/><path class="cls-5" d="M31.59,52.66a1.57,1.57,0,0,1,.18-.19.35.35,0,0,1-.05.08,1.59,1.59,0,0,1-.13.13Z"/><path class="cls-5" d="M32.62,51.58c.29-.28.59-.58.89-.84h0Z"/><path class="cls-5" d="M35.19,49.41a3.16,3.16,0,0,1,.27-.2v0C35.36,49.28,35.29,49.36,35.19,49.41Z"/><rect class="cls-5" x="33.66" y="4.41" width="0.02" height="0.02"/><path class="cls-5" d="M34.4,5a.18.18,0,0,1,.05.07S34.4,5,34.38,5Z"/></g></g></svg>