<svg xmlns="http://www.w3.org/2000/svg" xmlns:xlink="http://www.w3.org/1999/xlink" viewBox="0 0 211.28 211.28"><defs><style>.cls-1{fill:url(#linear-gradient);}.cls-2{fill:url(#linear-gradient-2);}</style><linearGradient id="linear-gradient" x1="159.81" y1="184.44" x2="44.98" y2="-14.46" gradientUnits="userSpaceOnUse"><stop offset="0.01" stop-color="#00aeef"/><stop offset="1" stop-color="#262262"/></linearGradient><linearGradient id="linear-gradient-2" x1="145.88" y1="64.32" x2="145.88" y2="0" xlink:href="#linear-gradient"/></defs><title>logo1</title><g id="Layer_2" data-name="Layer 2"><g id="Layer_1-2" data-name="Layer 1"><path class="cls-1" d="M27.52,0A26.7,26.7,0,0,0,8,8,26.7,26.7,0,0,0,0,27.52,27.21,27.21,0,0,0,3.31,40.76L80.47,195.25a26,26,0,0,0,5.75,8,26.41,26.41,0,0,0,19.51,8,26.7,26.7,0,0,0,19.51-8,28.74,28.74,0,0,0,5.57-8L186.9,82.91a44.63,44.63,0,0,1-20.38-1.22c-15.16-4.35-36.76-18.29-65-41.45C85.35,27.17,73.16,17.94,65,12.89,51.38,4.35,39.36.17,29.09,0Z"/><path class="cls-2" d="M211.28,27.52a27,27,0,0,0-3.14-12.89C202.92,4.88,194.73,0,183.76,0H80.47c7.67,5.05,18.81,13.59,33.27,25.43,26.3,21.42,45.63,34.14,58.35,37.8a26.19,26.19,0,0,0,15.5-.18,26.66,26.66,0,0,0,14.63-10.8l5.4-11,.18-.17.17-.35A26.64,26.64,0,0,0,211.28,27.52Z"/></g></g></svg>